<?xml version="1.0" standalone="no"?>
<!DOCTYPE svg PUBLIC "-//W3C//DTD SVG 20010904//EN"
 "http://www.w3.org/TR/2001/REC-SVG-20010904/DTD/svg10.dtd">
<svg version="1.0" xmlns="http://www.w3.org/2000/svg"
 width="525.000000pt" height="525.000000pt" viewBox="0 0 525.000000 525.000000"
 preserveAspectRatio="xMidYMid meet">
<metadata>
Created by potrace 1.14, written by Peter Selinger 2001-2017
</metadata>
<g transform="translate(0.000000,525.000000) scale(0.100000,-0.100000)"
fill="#000000" stroke="none">
<path d="M0 4902 l0 -348 323 -13 c454 -18 925 -39 1107 -51 85 -5 231 -12
323 -16 119 -4 172 -10 181 -20 13 -13 11 -60 -4 -69 -4 -2 -3 -26 1 -52 4
-26 8 -114 8 -195 1 -82 4 -148 9 -148 11 1 75 63 95 93 14 22 17 49 17 156 0
105 3 133 16 145 14 15 14 17 0 22 -11 4 -16 19 -16 45 l0 39 170 0 170 0 38
40 c20 22 57 64 82 94 68 82 70 81 70 -37 0 -69 3 -97 10 -87 5 8 10 57 10
108 0 50 4 92 8 92 5 0 56 -51 115 -114 97 -103 111 -114 150 -120 23 -3 175
-9 337 -13 162 -4 362 -9 445 -11 92 -2 163 0 186 7 33 10 38 16 44 51 4 22 6
86 4 143 -2 112 9 536 16 580 l5 27 -1960 0 -1960 0 0 -348z"/>
<path d="M286 3963 c-11 -11 -6 -20 19 -31 26 -12 43 -1 22 15 -23 18 -34 22
-41 16z"/>
<path d="M340 3962 c0 -10 33 -42 43 -42 15 0 6 30 -12 40 -24 12 -31 13 -31
2z"/>
<path d="M400 3956 c0 -16 38 -42 47 -32 7 7 -5 24 -28 36 -15 8 -19 7 -19 -4z"/>
<path d="M220 3950 c0 -14 48 -35 58 -26 8 9 -26 36 -45 36 -7 0 -13 -5 -13
-10z"/>
<path d="M460 3947 c0 -14 35 -39 44 -30 7 7 -23 43 -36 43 -4 0 -8 -6 -8 -13z"/>
<path d="M169 3943 c-1 -5 -1 -11 0 -15 0 -4 -13 -5 -29 -1 -18 3 -30 1 -30
-5 0 -16 39 -25 54 -13 6 5 22 8 34 4 27 -7 29 12 3 27 -23 12 -31 13 -32 3z"/>
<path d="M520 3936 c0 -17 26 -39 40 -34 6 2 4 12 -5 26 -18 25 -35 29 -35 8z"/>
<path d="M576 3915 c9 -22 44 -40 44 -22 0 17 -20 37 -37 37 -7 0 -10 -7 -7
-15z"/>
<path d="M61 3910 c-11 -6 -9 -10 7 -19 25 -14 42 -14 42 -1 0 15 -35 29 -49
20z"/>
<path d="M630 3906 c0 -19 27 -39 45 -33 8 4 18 -1 23 -10 5 -8 14 -14 21 -12
8 3 6 11 -5 27 -11 16 -19 20 -28 13 -8 -7 -15 -4 -24 10 -14 22 -32 25 -32 5z"/>
<path d="M3 3873 c1 -15 7 -18 29 -15 35 5 32 26 -5 30 -20 3 -26 -1 -24 -15z"/>
<path d="M740 3862 c0 -15 28 -47 35 -40 8 8 -13 48 -25 48 -6 0 -10 -4 -10
-8z"/>
<path d="M360 3837 c0 -12 -5 -28 -12 -35 -9 -9 -9 -12 2 -12 7 0 21 -6 29
-14 14 -13 19 -13 38 2 27 21 22 77 -7 69 -9 -2 -25 0 -34 5 -13 7 -16 4 -16
-15z"/>
<path d="M790 3832 c0 -15 28 -47 35 -40 8 8 -13 48 -25 48 -6 0 -10 -4 -10
-8z"/>
<path d="M125 3809 c-4 -5 -14 -9 -24 -9 -13 0 -17 -8 -17 -36 0 -29 3 -34 18
-31 10 3 21 1 24 -4 8 -14 24 -11 24 6 0 7 7 18 16 23 14 8 13 12 -10 35 -14
14 -28 21 -31 16z"/>
<path d="M845 3800 c-3 -5 0 -19 8 -31 18 -25 28 -13 16 19 -9 24 -15 27 -24
12z"/>
<path d="M640 3786 c0 -8 -7 -19 -17 -24 -15 -9 -15 -12 3 -33 22 -28 80 -30
70 -2 -4 9 -2 21 4 28 8 9 8 15 0 20 -5 3 -10 3 -10 -1 0 -3 -11 1 -25 10 -21
14 -25 14 -25 2z"/>
<path d="M890 3758 c0 -19 18 -43 25 -36 9 9 -4 48 -16 48 -5 0 -9 -6 -9 -12z"/>
<path d="M1949 3738 c-9 -17 -11 -176 -6 -680 l7 -657 -33 -25 c-28 -22 -42
-25 -104 -24 -91 2 -117 -13 -138 -84 -8 -28 -15 -79 -15 -113 0 -47 -5 -69
-20 -88 -11 -14 -20 -36 -20 -49 0 -13 -17 -58 -39 -99 -21 -42 -50 -111 -64
-155 -23 -71 -30 -100 -52 -209 -3 -16 -10 -160 -14 -320 -7 -227 -13 -305
-27 -357 -22 -81 -16 -112 46 -242 57 -120 74 -129 249 -134 l133 -4 -6 -49
c-4 -26 -13 -66 -21 -89 -8 -22 -19 -84 -25 -138 -5 -53 -14 -113 -19 -132 -5
-19 -12 -47 -15 -63 l-6 -27 805 0 805 0 0 39 c0 21 3 52 6 68 l6 30 921 -2
c507 0 928 1 935 3 9 3 12 42 12 148 l0 144 -302 0 c-504 1 -1993 12 -1997 15
-1 2 -14 -1 -28 -6 -34 -13 -41 -5 -38 38 3 59 -15 666 -21 686 -4 12 0 17 15
17 18 0 21 7 22 48 1 26 0 51 -1 57 -1 5 2 56 5 112 7 103 24 141 26 61 1 -24
5 -56 9 -73 6 -23 8 -13 11 45 l3 75 3 -62 c2 -35 8 -63 12 -63 5 0 11 -6 14
-12 3 -7 12 -30 21 -50 10 -23 12 -38 6 -38 -6 0 -15 11 -20 24 -12 32 -30 42
-30 18 0 -11 17 -34 38 -51 33 -27 35 -30 15 -31 -13 0 -23 -3 -23 -7 0 -13
20 -39 20 -28 0 6 7 2 15 -8 7 -11 11 -26 8 -34 -4 -11 -12 -8 -34 13 -16 15
-29 34 -29 41 0 7 -7 13 -16 13 -9 0 -14 -6 -11 -12 2 -7 10 -37 17 -65 l14
-53 48 0 c55 0 56 3 33 83 -8 29 -19 115 -25 192 -6 76 -12 141 -14 142 -2 2
-31 4 -65 6 -55 2 -61 4 -59 22 2 12 11 20 23 20 14 0 19 6 17 20 -6 38 -11
45 -37 45 -23 0 -25 3 -19 28 9 37 33 54 67 48 l29 -6 -7 68 c-11 115 -41 246
-69 300 -38 75 -35 116 12 162 22 20 42 48 46 63 6 24 11 27 51 27 45 0 45 0
45 35 0 41 6 43 42 12 27 -23 51 -87 123 -342 63 -218 82 -327 99 -545 7 -91
36 -374 39 -376 1 -1 51 54 112 122 60 68 112 124 114 124 2 0 21 -16 43 -36
32 -28 42 -33 54 -23 11 9 14 7 14 -14 0 -13 7 -31 16 -38 9 -7 37 -40 62 -74
25 -33 51 -63 57 -67 5 -5 30 -5 55 -1 25 4 57 7 72 7 29 1 108 74 108 100 0
8 -6 35 -14 58 -27 83 -29 108 -10 129 17 18 16 19 -22 19 -21 0 -79 -7 -129
-15 -49 -8 -107 -15 -127 -15 -20 0 -43 -7 -52 -15 -9 -9 -17 -11 -21 -5 -3 5
-19 10 -35 10 -37 0 -44 12 -30 55 13 40 6 38 186 59 160 19 248 20 261 4 16
-20 24 -66 13 -73 -9 -6 -7 -107 6 -207 5 -38 3 -49 -10 -54 -9 -3 -13 -10
-10 -15 3 -5 -1 -7 -8 -4 -7 3 -19 -4 -26 -15 -10 -17 -10 -21 0 -19 7 1 20
-1 28 -4 8 -4 279 -8 603 -9 l587 -3 0 151 0 151 -508 7 c-571 9 -558 10 -569
-57 l-6 -41 -22 65 c-12 35 -39 104 -59 153 -20 49 -36 90 -36 92 0 1 10 4 21
7 15 4 20 11 15 22 -3 9 -6 39 -6 66 0 42 -3 49 -19 49 -11 0 -23 -4 -26 -10
-13 -21 -24 -7 -48 63 -14 39 -35 97 -46 127 -12 30 -21 61 -21 68 0 12 -19
59 -61 147 -10 22 -23 72 -28 110 -12 82 -27 99 -98 110 -26 4 -79 22 -118 40
-38 18 -93 37 -121 43 -52 11 -318 100 -366 122 -16 7 -28 16 -28 20 0 18 63
140 72 140 5 0 7 9 3 20 -3 11 -3 25 2 32 4 7 8 24 9 38 4 56 24 157 38 195 8
22 15 47 16 56 0 8 5 20 12 27 16 16 19 40 18 161 -1 80 -6 115 -22 155 -11
28 -25 66 -30 84 -16 57 -47 99 -86 117 -20 10 -48 27 -62 40 -51 45 -96 64
-180 75 -61 8 -93 8 -113 1 -16 -6 -40 -11 -55 -11 -15 0 -40 -7 -56 -15 -15
-8 -36 -15 -45 -15 -10 0 -51 -22 -92 -49 -73 -47 -99 -79 -99 -124 0 -12 -10
-40 -22 -62 -17 -33 -22 -60 -24 -152 -2 -62 -8 -122 -14 -132 -15 -29 -12
-48 11 -70 13 -12 17 -21 10 -26 -15 -9 -14 -25 2 -25 35 0 49 -26 51 -93 2
-70 -4 -79 -35 -51 -19 17 -39 11 -39 -12 0 -8 -13 -32 -29 -54 -22 -31 -30
-55 -35 -110 -5 -51 -14 -81 -32 -108 -24 -35 -157 -132 -181 -132 -10 0 -13
26 -13 98 -2 422 -11 1121 -16 1140 -4 20 -9 22 -34 17 -16 -3 -38 -1 -49 4
-17 9 -22 7 -32 -11z m974 -327 c15 -6 56 -12 90 -14 68 -4 107 -26 107 -60 0
-10 7 -25 16 -34 11 -11 14 -26 9 -53 -5 -30 -3 -39 10 -44 11 -4 15 -13 12
-26 -3 -10 0 -21 7 -24 7 -3 6 -8 -4 -15 -10 -7 -11 -11 -2 -11 6 0 12 -5 12
-11 0 -5 -5 -7 -10 -4 -22 13 -164 -31 -180 -56 -3 -5 -17 -10 -30 -12 -22 -4
-25 -9 -24 -48 4 -138 10 -199 19 -199 5 0 -1 -7 -14 -16 -21 -15 -27 -15 -77
1 -82 26 -83 9 -2 -38 54 -31 74 -33 106 -9 22 17 22 21 12 87 -5 39 -10 80
-10 93 l0 23 33 -25 c38 -29 82 -33 114 -11 21 15 53 11 53 -6 0 -5 -4 -17 -9
-27 -21 -40 -61 -130 -61 -138 -1 -5 -11 -21 -23 -35 -28 -33 -84 -44 -146
-28 -31 8 -74 9 -124 5 -74 -7 -101 -21 -54 -28 17 -2 21 -9 19 -28 -5 -48 19
-65 95 -66 37 -1 74 -2 81 -3 23 -2 12 -39 -19 -65 -25 -22 -41 -26 -91 -26
-59 0 -62 1 -109 49 -29 28 -49 57 -49 70 0 12 -19 40 -43 64 -52 51 -66 80
-83 172 -7 39 -17 89 -23 113 -9 33 -9 207 0 232 1 3 1 9 0 14 -1 5 4 16 12
25 20 24 39 99 32 130 -4 21 0 34 22 55 15 16 37 32 48 37 27 12 243 4 278
-10z m117 -451 c0 -5 -4 -10 -10 -10 -5 0 -10 5 -10 10 0 6 5 10 10 10 6 0 10
-4 10 -10z m-532 -362 c57 -82 142 -177 187 -210 24 -18 44 -41 45 -50 0 -24
-15 -22 -32 4 -20 29 -57 19 -114 -34 -24 -22 -47 -38 -50 -35 -8 8 -85 274
-93 322 -4 22 -5 60 -2 85 l4 45 13 -42 c7 -23 26 -62 42 -85z m320 23 c3 -8
-1 -12 -9 -9 -7 2 -15 10 -17 17 -3 8 1 12 9 9 7 -2 15 -10 17 -17z m-124
-408 l56 -58 -6 -75 c-3 -41 -1 -140 5 -220 6 -80 13 -219 16 -310 8 -204 9
-212 38 -208 20 3 23 11 29 82 4 43 10 81 13 84 3 3 5 -56 5 -131 0 -129 -11
-182 -23 -117 l-6 29 -73 -54 c-73 -55 -103 -65 -127 -43 -10 11 -14 10 -22
-5 -6 -9 -20 -17 -32 -17 -19 0 -23 -5 -22 -32 0 -26 5 -34 22 -36 29 -4 142
44 168 72 19 20 67 46 85 46 5 0 5 -13 -1 -29 -10 -27 -43 -51 -261 -185 l-31
-20 -24 28 c-13 15 -21 31 -18 36 3 4 -6 32 -19 61 -14 29 -23 55 -21 58 4 7
57 34 105 54 68 28 145 63 163 73 17 10 17 15 -3 135 -33 194 -118 611 -146
716 -29 109 -25 123 36 123 33 0 45 -8 94 -57z m1345 -555 c-1 -42 -1 -42 -10
-13 -5 17 -7 36 -4 43 9 24 15 11 14 -30z m-143 -376 c-7 -45 -12 -49 -36 -27
-25 23 -26 62 -2 67 34 8 44 -3 38 -40z m-86 -52 c0 -13 -33 -13 -47 1 -6 6
-19 12 -29 14 -11 2 -21 4 -23 4 -2 1 2 8 9 16 10 13 17 12 51 -5 21 -11 39
-25 39 -30z m90 -24 c0 -19 -14 -28 -34 -20 -25 10 -19 34 9 34 15 0 25 -6 25
-14z m-1543 -113 c-9 -9 -20 -13 -24 -9 -4 4 -1 11 7 16 25 16 35 11 17 -7z
m-91 -25 c-8 -13 -23 -53 -32 -90 -15 -58 -16 -76 -7 -123 14 -67 46 -115 76
-115 12 0 28 -4 36 -9 9 -6 29 -1 59 15 50 27 66 24 36 -7 -13 -13 -44 -23
-90 -30 -39 -6 -73 -17 -77 -25 -6 -10 -13 -11 -27 -4 -13 7 -21 7 -25 0 -11
-18 -28 -11 -22 9 3 11 -1 28 -8 38 -7 10 -18 42 -24 71 -26 121 -3 228 58
269 46 31 67 31 47 1z m85 2 c6 0 7 -9 4 -21 -4 -12 -8 -27 -9 -34 -1 -7 -7
-20 -14 -28 -17 -20 -6 -62 25 -95 23 -25 16 -46 -13 -35 -17 6 -64 118 -64
151 0 36 28 75 47 68 8 -3 19 -6 24 -6z m259 -90 c0 -5 -5 -10 -11 -10 -5 0
-7 5 -4 10 3 6 8 10 11 10 2 0 4 -4 4 -10z m-17 -45 c-6 -17 -25 -15 -31 3 -2
7 5 12 17 12 14 0 19 -5 14 -15z m-308 -94 c-3 -3 -10 0 -14 8 -5 7 -12 11
-17 9 -5 -1 -10 17 -11 42 l-1 44 24 -48 c14 -27 22 -51 19 -55z"/>
<path d="M2583 3116 l-28 -25 19 -35 c11 -20 22 -36 26 -36 3 0 30 -20 59 -45
66 -57 108 -60 161 -15 19 16 39 30 44 30 8 0 46 39 46 47 0 20 -59 56 -124
77 -103 34 -165 34 -203 2z m152 -136 c3 -5 2 -10 -4 -10 -5 0 -13 5 -16 10
-3 6 -2 10 4 10 5 0 13 -4 16 -10z"/>
<path d="M933 3716 c4 -10 7 -22 7 -27 0 -5 5 -9 11 -9 15 0 7 43 -10 48 -10
3 -12 0 -8 -12z"/>
<path d="M268 3683 c6 -2 18 -2 25 0 6 3 1 5 -13 5 -14 0 -19 -2 -12 -5z"/>
<path d="M448 3683 c7 -3 16 -2 19 1 4 3 -2 6 -13 5 -11 0 -14 -3 -6 -6z"/>
<path d="M982 3669 c1 -12 8 -24 15 -26 7 -3 9 3 6 17 -8 29 -25 37 -21 9z"/>
<path d="M141 3649 c-13 -5 -21 -12 -18 -15 3 -3 18 1 34 10 31 17 21 20 -16
5z"/>
<path d="M610 3635 c14 -8 30 -14 35 -14 6 0 -1 6 -15 14 -14 8 -29 14 -35 14
-5 0 1 -6 15 -14z"/>
<path d="M395 3619 c-8 -24 -8 -24 24 -34 18 -5 22 -4 17 6 -3 8 -9 22 -12 32
-8 23 -21 22 -29 -4z"/>
<path d="M1020 3621 c0 -11 5 -23 10 -26 6 -4 10 5 10 19 0 14 -4 26 -10 26
-5 0 -10 -9 -10 -19z"/>
<path d="M90 3619 c0 -5 5 -7 10 -4 6 3 10 8 10 11 0 2 -4 4 -10 4 -5 0 -10
-5 -10 -11z"/>
<path d="M310 3606 c0 -15 7 -21 24 -22 22 -2 23 1 14 20 -12 29 -38 29 -38 2z"/>
<path d="M863 3616 c-15 -8 -19 -17 -13 -26 4 -7 6 -19 3 -27 -3 -7 1 -13 10
-13 9 0 22 -3 31 -6 10 -4 16 -1 16 7 0 7 7 21 17 31 15 17 15 18 -1 18 -9 0
-19 7 -22 15 -7 17 -11 17 -41 1z"/>
<path d="M470 3598 c0 -10 3 -18 8 -18 4 0 12 8 18 18 10 15 8 18 -7 18 -12 0
-19 -7 -19 -18z"/>
<path d="M201 3605 c1 -19 18 -51 18 -35 0 8 -4 22 -9 30 -5 8 -9 11 -9 5z"/>
<path d="M547 3603 c-7 -11 13 -63 24 -63 4 0 9 9 12 20 3 11 1 17 -4 14 -5
-3 -13 5 -17 17 -5 12 -12 18 -15 12z"/>
<path d="M130 3576 c0 -8 8 -24 18 -36 16 -20 19 -20 31 -7 9 12 10 21 1 36
-12 24 -50 29 -50 7z"/>
<path d="M1056 3581 c-4 -6 -3 -18 2 -27 8 -15 10 -14 16 2 8 20 -8 42 -18 25z"/>
<path d="M635 3550 c3 -5 0 -7 -8 -4 -8 3 -18 1 -22 -5 -3 -6 1 -11 9 -11 9 0
16 -4 16 -10 0 -5 5 -10 10 -10 6 0 10 11 10 25 0 14 -5 25 -11 25 -5 0 -7 -4
-4 -10z"/>
<path d="M75 3523 c8 -33 16 -42 22 -25 3 6 12 12 21 12 13 0 11 5 -8 20 -34
27 -43 25 -35 -7z"/>
<path d="M1091 3520 c0 -33 1 -34 11 -12 8 17 8 26 0 34 -9 9 -12 4 -11 -22z"/>
<path d="M685 3510 c-7 -11 2 -30 15 -30 4 0 10 6 13 14 6 16 -19 30 -28 16z"/>
<path d="M16 3503 c-11 -11 -7 -23 8 -23 8 0 16 -6 19 -12 2 -7 7 -11 10 -8 3
3 -3 15 -13 27 -9 12 -20 19 -24 16z"/>
<path d="M1117 3478 c-8 -30 9 -47 18 -18 4 12 3 26 -3 32 -6 6 -11 1 -15 -14z"/>
<path d="M1140 3414 c0 -14 4 -23 10 -19 6 3 10 15 10 26 0 10 -4 19 -10 19
-5 0 -10 -12 -10 -26z"/>
<path d="M770 3393 c0 -3 7 -11 16 -20 11 -12 18 -13 27 -4 8 8 7 11 -3 12 -9
0 -7 4 5 9 16 6 14 8 -12 7 -18 0 -33 -2 -33 -4z"/>
<path d="M1010 3369 c0 -10 -5 -21 -11 -24 -6 -4 1 -13 18 -22 18 -9 29 -11
31 -4 2 6 13 11 24 11 20 0 20 1 5 18 -10 10 -17 23 -17 29 0 6 -11 11 -25 11
-17 0 -25 -6 -25 -19z"/>
<path d="M1167 3377 c-11 -29 -9 -53 4 -40 6 6 9 21 7 34 -3 21 -4 22 -11 6z"/>
<path d="M552 3329 c-17 -29 -49 -57 -110 -96 -152 -97 -173 -128 -180 -268
l-4 -90 42 42 c28 27 69 53 119 74 138 57 164 96 167 256 2 62 0 114 -4 117
-4 2 -18 -14 -30 -35z m-14 -136 c2 -8 -5 -13 -17 -13 -12 0 -21 6 -21 16 0
18 31 15 38 -3z m-91 -84 c8 -7 29 -12 45 -11 27 2 29 0 18 -13 -18 -21 -66
-19 -90 5 -23 23 -26 52 -7 83 11 21 12 20 15 -15 2 -20 10 -42 19 -49z"/>
<path d="M210 3335 c-10 -12 -11 -54 -6 -177 3 -89 8 -163 10 -165 2 -2 6 20
9 48 7 54 40 120 79 156 12 12 59 42 103 66 128 70 114 87 -71 87 -88 0 -114
-3 -124 -15z"/>
<path d="M828 3335 c-3 -6 -3 -18 1 -28 6 -16 8 -16 26 -3 17 13 18 15 3 16
-9 0 -18 5 -20 12 -3 7 -7 8 -10 3z"/>
<path d="M1188 3324 c-5 -4 -8 -16 -8 -28 0 -14 3 -17 11 -9 6 6 9 19 7 28 -1
9 -6 13 -10 9z"/>
<path d="M1197 3257 c-11 -29 -9 -43 4 -30 6 6 9 19 7 29 -3 18 -4 18 -11 1z"/>
<path d="M845 3230 c-3 -6 1 -7 9 -4 10 4 16 1 16 -8 0 -8 7 -15 15 -15 8 0
15 9 15 19 0 12 -7 18 -24 18 -14 0 -28 -4 -31 -10z"/>
<path d="M1206 3194 c-9 -24 -7 -28 9 -14 17 14 20 30 6 30 -5 0 -12 -7 -15
-16z"/>
<path d="M874 3156 c23 -18 36 -20 36 -6 0 6 -4 10 -9 10 -5 0 -18 3 -28 6
-16 5 -16 4 1 -10z"/>
<path d="M1211 3136 c-8 -9 -11 -19 -7 -23 9 -9 29 13 24 27 -2 8 -8 7 -17 -4z"/>
<path d="M870 3129 c0 -5 5 -7 10 -4 6 3 10 8 10 11 0 2 -4 4 -10 4 -5 0 -10
-5 -10 -11z"/>
<path d="M1070 3117 c0 -9 -8 -20 -17 -26 -17 -9 -17 -10 0 -16 9 -4 17 -14
17 -22 0 -10 6 -13 16 -9 9 3 21 6 27 6 7 0 12 14 13 30 1 22 -3 30 -15 30
-10 0 -22 5 -29 12 -9 9 -12 8 -12 -5z"/>
<path d="M874 3071 c0 -12 6 -17 17 -14 28 8 32 33 6 33 -15 0 -23 -6 -23 -19z"/>
<path d="M1213 3075 c-9 -25 4 -29 17 -6 7 15 7 21 0 21 -6 0 -13 -7 -17 -15z"/>
<path d="M1210 3015 c-7 -8 -8 -15 -2 -15 5 0 15 7 22 15 7 8 8 15 2 15 -5 0
-15 -7 -22 -15z"/>
<path d="M556 2991 c-10 -11 -57 -32 -103 -46 -68 -21 -92 -34 -123 -67 -22
-22 -37 -44 -34 -49 3 -5 33 -9 67 -9 74 0 132 24 169 68 44 52 67 150 24 103z"/>
<path d="M867 2990 c-3 -11 -2 -20 3 -20 4 0 10 9 13 20 3 11 2 20 -3 20 -4 0
-10 -9 -13 -20z"/>
<path d="M890 2980 c0 -5 5 -10 10 -10 6 0 10 5 10 10 0 6 -4 10 -10 10 -5 0
-10 -4 -10 -10z"/>
<path d="M1205 2959 c-11 -17 1 -21 15 -4 8 9 8 15 2 15 -6 0 -14 -5 -17 -11z"/>
<path d="M853 2916 c-27 -13 -29 -22 -7 -30 8 -3 12 -2 9 4 -4 6 4 14 16 18
12 5 18 11 13 13 -5 3 -19 1 -31 -5z"/>
<path d="M1200 2905 c-7 -9 -11 -18 -8 -20 3 -3 11 1 18 10 7 9 11 18 8 20 -3
3 -11 -1 -18 -10z"/>
<path d="M1036 2851 c-4 -6 -17 -11 -29 -11 -16 0 -18 -3 -9 -12 7 -7 12 -20
12 -29 0 -10 10 -19 23 -21 18 -3 28 2 40 24 13 23 14 28 2 28 -8 0 -18 7 -23
16 -6 11 -11 13 -16 5z"/>
<path d="M1180 2845 c-7 -8 -8 -15 -2 -15 5 0 15 7 22 15 7 8 8 15 2 15 -5 0
-15 -7 -22 -15z"/>
<path d="M1165 2789 c-11 -17 1 -21 15 -4 8 9 8 15 2 15 -6 0 -14 -5 -17 -11z"/>
<path d="M1140 2740 c-8 -5 -12 -12 -9 -15 8 -8 39 5 39 16 0 11 -11 11 -30
-1z"/>
<path d="M1128 2693 c-10 -2 -18 -9 -18 -14 0 -14 16 -11 30 6 7 8 11 14 9 14
-2 -1 -12 -3 -21 -6z"/>
<path d="M1080 2630 c0 -13 11 -13 30 0 12 8 11 10 -7 10 -13 0 -23 -4 -23
-10z"/>
<path d="M883 2622 c-13 -2 -23 -9 -23 -17 0 -7 -3 -20 -6 -29 -4 -12 0 -16
15 -16 12 0 21 -4 21 -10 0 -5 9 -1 20 10 16 16 17 23 7 42 -8 16 -19 22 -34
20z"/>
<path d="M386 2603 c-11 -11 -6 -23 9 -23 8 0 15 4 15 9 0 13 -16 22 -24 14z"/>
<path d="M1055 2590 c-3 -5 1 -10 9 -10 8 0 18 5 21 10 3 6 -1 10 -9 10 -8 0
-18 -4 -21 -10z"/>
<path d="M1015 2540 c-3 -5 1 -10 9 -10 8 0 18 5 21 10 3 6 -1 10 -9 10 -8 0
-18 -4 -21 -10z"/>
<path d="M975 2500 c-3 -5 3 -10 14 -10 12 0 21 5 21 10 0 6 -6 10 -14 10 -8
0 -18 -4 -21 -10z"/>
<path d="M90 2463 c0 -13 0 -26 0 -30 0 -4 7 -8 16 -9 9 -1 18 -5 21 -7 2 -3
14 4 26 16 13 13 17 22 9 25 -7 2 -12 10 -12 17 0 10 -10 13 -30 12 -24 -2
-30 -7 -30 -24z"/>
<path d="M640 2467 c0 -8 -5 -17 -12 -19 -20 -7 28 -47 50 -42 21 6 27 64 6
64 -7 0 -19 3 -28 6 -10 4 -16 1 -16 -9z"/>
<path d="M930 2460 c0 -5 9 -10 20 -10 11 0 20 5 20 10 0 6 -9 10 -20 10 -11
0 -20 -4 -20 -10z"/>
<path d="M386 2425 c-3 -8 -13 -15 -22 -15 -13 0 -14 -3 -4 -15 7 -8 10 -21 7
-28 -4 -10 3 -14 24 -13 19 1 29 6 29 17 0 8 4 19 9 25 6 5 1 16 -14 26 -20
15 -24 15 -29 3z"/>
<path d="M898 2418 c9 -9 15 -9 24 0 9 9 7 12 -12 12 -19 0 -21 -3 -12 -12z"/>
<path d="M840 2390 c0 -5 12 -10 26 -10 14 0 23 4 19 10 -3 6 -15 10 -26 10
-10 0 -19 -4 -19 -10z"/>
<path d="M10 2363 c0 -14 19 -38 25 -32 8 8 -5 39 -16 39 -5 0 -9 -3 -9 -7z"/>
<path d="M790 2360 c0 -5 12 -10 28 -10 21 0 24 2 12 10 -20 13 -40 13 -40 0z"/>
<path d="M60 2342 c0 -5 7 -17 15 -28 15 -19 20 -8 9 20 -6 17 -24 22 -24 8z"/>
<path d="M745 2330 c3 -5 13 -10 21 -10 8 0 14 5 14 10 0 6 -9 10 -21 10 -11
0 -17 -4 -14 -10z"/>
<path d="M110 2322 c0 -5 9 -17 20 -27 22 -20 26 -14 10 16 -11 19 -30 26 -30
11z"/>
<path d="M690 2310 c20 -13 43 -13 35 0 -3 6 -16 10 -28 10 -18 0 -19 -2 -7
-10z"/>
<path d="M170 2302 c0 -10 22 -32 32 -32 5 0 3 9 -4 20 -13 20 -28 27 -28 12z"/>
<path d="M635 2290 c3 -5 13 -10 21 -10 8 0 14 5 14 10 0 6 -9 10 -21 10 -11
0 -17 -4 -14 -10z"/>
<path d="M230 2281 c0 -13 29 -35 37 -28 7 8 -15 37 -28 37 -5 0 -9 -4 -9 -9z"/>
<path d="M584 2275 c10 -8 23 -12 29 -8 11 7 -12 23 -33 23 -12 -1 -11 -4 4
-15z"/>
<path d="M290 2271 c0 -13 26 -32 33 -24 8 7 -11 33 -24 33 -5 0 -9 -4 -9 -9z"/>
<path d="M340 2272 c0 -10 21 -32 32 -32 16 0 8 19 -12 30 -11 6 -20 7 -20 2z"/>
<path d="M522 2268 c3 -7 13 -15 24 -17 16 -3 17 -1 5 13 -16 19 -34 21 -29 4z"/>
<path d="M413 2253 c9 -9 19 -14 23 -11 10 10 -6 28 -24 28 -15 0 -15 -1 1
-17z"/>
<path d="M465 2260 c3 -5 14 -10 23 -10 15 0 15 2 2 10 -20 13 -33 13 -25 0z"/>
<path d="M2975 2261 c-2 -4 0 -24 5 -46 18 -84 30 -155 50 -300 11 -82 30
-211 41 -285 11 -74 24 -178 30 -230 5 -52 14 -129 19 -170 6 -41 10 -87 10
-101 0 -23 15 -39 36 -39 11 0 -9 199 -27 278 -11 46 -21 111 -24 145 -3 34
-10 91 -15 127 -29 197 -42 306 -51 405 -5 60 -12 130 -15 154 -6 43 -6 44 20
37 32 -8 34 -1 4 15 -25 14 -77 19 -83 10z"/>
<path d="M4158 1685 c-33 -66 -33 -91 0 -62 25 23 74 21 104 -3 14 -10 28 -17
31 -13 3 3 -10 36 -29 74 -45 91 -63 92 -106 4z m76 -16 c-6 -10 -38 -12 -47
-3 -3 3 -1 17 6 31 l11 25 18 -22 c10 -12 15 -26 12 -31z"/>
<path d="M4306 1743 c-3 -4 9 -23 28 -42 20 -21 36 -49 38 -65 4 -38 28 -47
28 -11 0 16 15 45 36 71 40 48 27 60 -17 18 l-28 -27 -36 32 c-39 34 -39 34
-49 24z"/>
<path d="M4508 1675 c-29 -63 -31 -100 -4 -62 17 22 104 24 112 2 4 -8 12 -15
20 -15 10 0 4 20 -21 70 -47 93 -65 94 -107 5z m73 14 c14 -26 -1 -44 -30 -34
-17 5 -19 9 -9 31 14 30 24 30 39 3z"/>
<path d="M2946 1621 c-6 -10 33 -23 46 -15 4 3 8 9 8 15 0 12 -47 12 -54 0z"/>
<path d="M2955 1260 c3 -5 8 -10 11 -10 2 0 4 5 4 10 0 6 -5 10 -11 10 -5 0
-7 -4 -4 -10z"/>
<path d="M154 1126 c-29 -29 -34 -41 -34 -83 0 -43 4 -53 34 -82 58 -57 148
-44 181 24 19 41 19 78 0 115 -21 42 -53 60 -103 60 -37 0 -50 -6 -78 -34z"/>
<path d="M479 1145 c-28 -15 -59 -70 -59 -105 0 -27 22 -70 49 -94 15 -13 36
-19 68 -19 40 0 50 4 80 36 24 27 33 46 33 72 0 94 -92 153 -171 110z"/>
<path d="M0 560 l0 -61 128 3 127 3 0 55 0 55 -127 3 -128 3 0 -61z"/>
<path d="M311 606 c-7 -8 -11 -34 -9 -58 l3 -43 80 -3 c43 -2 85 -8 93 -14 11
-9 13 -54 9 -232 -2 -122 -2 -229 1 -238 4 -15 16 -18 68 -18 l64 0 0 234 c0
129 3 241 6 250 5 13 23 16 89 16 66 0 84 3 89 16 10 26 7 79 -6 92 -19 19
-472 17 -487 -2z"/>
<path d="M851 601 c-14 -25 -14 -57 -1 -82 8 -15 21 -19 59 -19 59 0 73 14 69
72 l-3 43 -57 3 c-48 3 -58 0 -67 -17z"/>
<path d="M845 438 c-3 -13 -4 -115 -3 -228 l3 -205 68 -3 67 -3 -2 228 -3 228
-62 3 c-58 3 -63 1 -68 -20z"/>
<path d="M0 315 l0 -55 115 0 c85 0 115 3 116 13 0 6 2 23 4 37 6 54 -6 60
-125 60 l-110 0 0 -55z"/>
<path d="M0 55 l0 -55 135 0 135 0 0 43 c0 24 -5 48 -12 55 -8 8 -53 12 -135
12 l-123 0 0 -55z"/>
</g>
</svg>
